TITLE ""
FILE "P1Q_t_1549-1558.mp3" MP3
  TRACK 01 AUDIO
    TITLE "P1Q_t_1549-1558_01"
    INDEX 01 00:00:00
  TRACK 02 AUDIO
    TITLE "P1Q_t_1549-1558_02"
    INDEX 01 00:00:12
  TRACK 03 AUDIO
    TITLE "P1Q_t_1549-1558_03"
    INDEX 01 00:01:41
  TRACK 04 AUDIO
    TITLE "P1Q_t_1549-1558_04"
    INDEX 01 00:01:61
  TRACK 05 AUDIO
    TITLE "P1Q_t_1549-1558_05"
    INDEX 01 00:03:01
  TRACK 06 AUDIO
    TITLE "P1Q_t_1549-1558_06"
    INDEX 01 00:03:24
  TRACK 07 AUDIO
    TITLE "P1Q_t_1549-1558_07"
    INDEX 01 00:08:16
  TRACK 08 AUDIO
    TITLE "P1Q_t_1549-1558_08"
    INDEX 01 00:08:63
  TRACK 09 AUDIO
    TITLE "P1Q_t_1549-1558_09"
    INDEX 01 00:10:05
  TRACK 10 AUDIO
    TITLE "P1Q_t_1549-1558_10"
    INDEX 01 00:10:26
  TRACK 11 AUDIO
    TITLE "P1Q_t_1549-1558_11"
    INDEX 01 00:12:25
  TRACK 12 AUDIO
    TITLE "P1Q_t_1549-1558_12"
    INDEX 01 00:12:45
  TRACK 13 AUDIO
    TITLE "P1Q_t_1549-1558_13"
    INDEX 01 00:16:50
  TRACK 14 AUDIO
    TITLE "P1Q_t_1549-1558_14"
    INDEX 01 00:17:21
  TRACK 15 AUDIO
    TITLE "P1Q_t_1549-1558_15"
    INDEX 01 00:18:18
  TRACK 16 AUDIO
    TITLE "P1Q_t_1549-1558_16"
    INDEX 01 00:18:38
  TRACK 17 AUDIO
    TITLE "P1Q_t_1549-1558_17"
    INDEX 01 00:20:42
  TRACK 18 AUDIO
    TITLE "P1Q_t_1549-1558_18"
    INDEX 01 00:20:62
  TRACK 19 AUDIO
    TITLE "P1Q_t_1549-1558_19"
    INDEX 01 00:25:08
  TRACK 20 AUDIO
    TITLE "P1Q_t_1549-1558_20"
    INDEX 01 00:25:55
  TRACK 21 AUDIO
    TITLE "P1Q_t_1549-1558_21"
    INDEX 01 00:27:03
  TRACK 22 AUDIO
    TITLE "P1Q_t_1549-1558_22"
    INDEX 01 00:27:27
  TRACK 23 AUDIO
    TITLE "P1Q_t_1549-1558_23"
    INDEX 01 00:29:37
  TRACK 24 AUDIO
    TITLE "P1Q_t_1549-1558_24"
    INDEX 01 00:29:57
  TRACK 25 AUDIO
    TITLE "P1Q_t_1549-1558_25"
    INDEX 01 00:34:46
  TRACK 26 AUDIO
    TITLE "P1Q_t_1549-1558_26"
    INDEX 01 00:35:16
  TRACK 27 AUDIO
    TITLE "P1Q_t_1549-1558_27"
    INDEX 01 00:36:36
  TRACK 28 AUDIO
    TITLE "P1Q_t_1549-1558_28"
    INDEX 01 00:36:55
  TRACK 29 AUDIO
    TITLE "P1Q_t_1549-1558_29"
    INDEX 01 00:40:47
  TRACK 30 AUDIO
    TITLE "P1Q_t_1549-1558_30"
    INDEX 01 00:40:65
  TRACK 31 AUDIO
    TITLE "P1Q_t_1549-1558_31"
    INDEX 01 00:45:52
  TRACK 32 AUDIO
    TITLE "P1Q_t_1549-1558_32"
    INDEX 01 00:46:24
  TRACK 33 AUDIO
    TITLE "P1Q_t_1549-1558_33"
    INDEX 01 00:47:27
  TRACK 34 AUDIO
    TITLE "P1Q_t_1549-1558_34"
    INDEX 01 00:47:51
  TRACK 35 AUDIO
    TITLE "P1Q_t_1549-1558_35"
    INDEX 01 00:49:48
  TRACK 36 AUDIO
    TITLE "P1Q_t_1549-1558_36"
    INDEX 01 00:49:70
  TRACK 37 AUDIO
    TITLE "P1Q_t_1549-1558_37"
    INDEX 01 00:53:26
  TRACK 38 AUDIO
    TITLE "P1Q_t_1549-1558_38"
    INDEX 01 00:53:71
  TRACK 39 AUDIO
    TITLE "P1Q_t_1549-1558_39"
    INDEX 01 00:55:11
  TRACK 40 AUDIO
    TITLE "P1Q_t_1549-1558_40"
    INDEX 01 00:55:33
  TRACK 41 AUDIO
    TITLE "P1Q_t_1549-1558_41"
    INDEX 01 00:56:36
  TRACK 42 AUDIO
    TITLE "P1Q_t_1549-1558_42"
    INDEX 01 00:56:54
  TRACK 43 AUDIO
    TITLE "P1Q_t_1549-1558_43"
    INDEX 01 01:02:74
  TRACK 44 AUDIO
    TITLE "P1Q_t_1549-1558_44"
    INDEX 01 01:03:44
  TRACK 45 AUDIO
    TITLE "P1Q_t_1549-1558_45"
    INDEX 01 01:04:57
  TRACK 46 AUDIO
    TITLE "P1Q_t_1549-1558_46"
    INDEX 01 01:05:04
  TRACK 47 AUDIO
    TITLE "P1Q_t_1549-1558_47"
    INDEX 01 01:08:71
  TRACK 48 AUDIO
    TITLE "P1Q_t_1549-1558_48"
    INDEX 01 01:09:15
  TRACK 49 AUDIO
    TITLE "P1Q_t_1549-1558_49"
    INDEX 01 01:14:03
  TRACK 50 AUDIO
    TITLE "P1Q_t_1549-1558_50"
    INDEX 01 01:14:48
  TRACK 51 AUDIO
    TITLE "P1Q_t_1549-1558_51"
    INDEX 01 01:15:63
  TRACK 52 AUDIO
    TITLE "P1Q_t_1549-1558_52"
    INDEX 01 01:16:10
  TRACK 53 AUDIO
    TITLE "P1Q_t_1549-1558_53"
    INDEX 01 01:18:36
  TRACK 54 AUDIO
    TITLE "P1Q_t_1549-1558_54"
    INDEX 01 01:18:57
  TRACK 55 AUDIO
    TITLE "P1Q_t_1549-1558_55"
    INDEX 01 01:24:13
  TRACK 56 AUDIO
    TITLE "P1Q_t_1549-1558_56"
    INDEX 01 01:24:62
  TRACK 57 AUDIO
    TITLE "P1Q_t_1549-1558_57"
    INDEX 01 01:25:73
  TRACK 58 AUDIO
    TITLE "P1Q_t_1549-1558_58"
    INDEX 01 01:26:18
  TRACK 59 AUDIO
    TITLE "P1Q_t_1549-1558_59"
    INDEX 01 01:28:24
  TRACK 60 AUDIO
    TITLE "P1Q_t_1549-1558_60"
    INDEX 01 01:28:44
  TRACK 61 AUDIO
    TITLE "P1Q_t_1549-1558_61"
    INDEX 01 01:33:47
